<svg width="48" height="48" viewBox="0 0 48 48" fill="none" xmlns="http://www.w3.org/2000/svg">
<path fill-rule="evenodd" clip-rule="evenodd" d="M24 0C10.7452 0 0 10.7452 0 24C0 37.2548 10.7452 48 24 48C37.2548 48 48 37.2548 48 24C48 10.7452 37.2548 0 24 0ZM23.3316 20.3379L23.2812 19.5074C23.1301 17.355 24.4563 15.389 26.5548 14.6264C27.327 14.3552 28.6364 14.3213 29.4926 14.5586C29.8283 14.6603 30.4663 14.9992 30.9195 15.3043L31.7421 15.8636L32.6486 15.5755C33.1523 15.4229 33.8238 15.1687 34.1259 14.9992C34.4113 14.8467 34.6631 14.762 34.6631 14.8128C34.6631 15.1009 34.042 16.0839 33.5216 16.6262C32.8165 17.3889 33.018 17.4567 34.4449 16.9482C35.3011 16.6601 35.3178 16.6601 35.15 16.9821C35.0492 17.1516 34.5288 17.7448 33.9748 18.2871C33.0347 19.2193 32.9844 19.321 32.9844 20.1006C32.9844 21.3039 32.4136 23.8122 31.8428 25.185C30.7852 27.7611 28.5189 30.4219 26.2526 31.7608C23.063 33.6421 18.8157 34.1166 15.24 33.015C14.0481 32.6421 12 31.693 12 31.5236C12 31.4727 12.6211 31.4049 13.3766 31.388C14.9546 31.3541 16.5326 30.9134 17.8756 30.1338L18.7822 29.5915L17.7413 29.2356C16.264 28.7271 14.9378 27.5577 14.6021 26.4561C14.5013 26.1002 14.5349 26.0832 15.475 26.0832L16.4487 26.0663L15.6261 25.6765C14.6524 25.185 13.7627 24.3545 13.3262 23.5071C13.0072 22.897 12.6044 21.3547 12.7219 21.2361C12.7554 21.1853 13.108 21.2869 13.5109 21.4225C14.6692 21.8462 14.8203 21.7445 14.1488 21.0327C12.8897 19.7447 12.5036 17.8295 13.108 16.0161L13.3934 15.2026L14.5013 16.3042C16.7677 18.5244 19.4369 19.8464 22.4922 20.2362L23.3316 20.3379Z" fill="#24325B"/>
</svg>
